<!--?xml version="1.0" encoding="utf-8"?-->
<!-- Generator: Adobe Illustrator 25.2.3, SVG Export Plug-In . SVG Version: 6.00 Build 0)  -->
<svg version="1.1" id="_x33_" xmlns="http://www.w3.org/2000/svg" xmlns:xlink="http://www.w3.org/1999/xlink" x="0px" y="0px" viewBox="0 0 800 451.839" style="enable-background:new 0 0 800 451.839;" xml:space="preserve">
<style type="text/css">
	.stblack{fill:#000000;}
	.st0{fill:#FFFFFF;}
</style>
<g>
	<polygon class="st0" points="684.864,413.544 777.945,12.929 115.138,12.929 22.058,413.544 	"></polygon>
	<path class="stblack" d="M578.347,403.912l29.96,36.041c0.577,0.694,1.606,0.788,2.3,0.212c0.693-0.577,0.789-1.606,0.212-2.3l-29.96-36.041
		c-0.577-0.694-1.606-0.788-2.3-0.212C577.866,402.19,577.771,403.219,578.347,403.912"></path>
	<path class="stblack" d="M555.851,411.91H24.113l92.322-397.348h659.453L683.565,411.91h-63.113c-0.903,0-1.633,0.732-1.633,1.634
		c0,0.902,0.732,1.634,1.633,1.634l65.709-0.001L780,11.296H113.838L20,415.177h535.851c0.902,0,1.633-0.732,1.633-1.633
		C557.484,412.642,556.753,411.911,555.851,411.91L555.851,411.91z"></path>
</g>
</svg>
